<?xml version="1.0" standalone="no"?>
<!DOCTYPE svg PUBLIC "-//W3C//DTD SVG 20010904//EN"
 "http://www.w3.org/TR/2001/REC-SVG-20010904/DTD/svg10.dtd">
<svg version="1.0" xmlns="http://www.w3.org/2000/svg"
 width="700.000000pt" height="700.000000pt" viewBox="0 0 700.000000 700.000000"
 preserveAspectRatio="xMidYMid meet">
<metadata>
Created by potrace 1.14, written by Peter Selinger 2001-2017
</metadata>
<g transform="translate(0.000000,700.000000) scale(0.100000,-0.100000)"
fill="#000000" stroke="none">
<path d="M1767 6602 c-9 -2 -17 -9 -17 -15 0 -7 -1 -157 -1 -334 l0 -323 -32
-1 c-18 0 -170 -1 -340 -1 l-307 0 0 -2462 c0 -2445 0 -2462 21 -2535 78 -284
308 -486 599 -528 50 -7 3553 -6 3623 1 142 15 290 89 402 201 91 91 91 91
145 200 78 157 72 -61 72 2695 0 1356 -3 2479 -6 2495 -3 17 -9 46 -12 65 -10
60 -63 176 -114 247 -41 59 -123 141 -178 178 -73 50 -197 100 -277 112 -41 6
-3548 11 -3578 5z m3158 -684 c114 -25 229 -108 276 -201 51 -99 49 14 49
-2389 l0 -2248 -37 -1 c-21 0 -724 0 -1563 0 -1691 0 -1584 -4 -1700 66 -90
55 -148 130 -181 234 -20 66 -20 79 -20 2186 0 1166 0 2175 1 2241 l0 122
1563 0 c1088 1 1577 -2 1612 -10z"/>
<path d="M2341 5240 c-6 -11 -8 -506 -2 -542 0 -5 524 -8 1164 -8 l1162 0 -2
267 c-1 148 -2 275 -2 283 -1 13 -134 15 -1157 15 -1024 0 -1157 -1 -1163 -15z"/>
<path d="M2339 4358 c-5 -49 -4 -526 0 -538 5 -14 137 -15 1164 -15 1150 0
1157 0 1158 20 0 11 1 138 2 283 l2 262 -1162 0 c-923 0 -1163 -3 -1164 -12z"/>
<path d="M2353 3500 c-17 -5 -18 -22 -17 -275 1 -148 2 -274 3 -280 1 -7 228
-9 663 -8 365 1 671 2 681 2 16 1 17 21 17 281 0 217 -3 280 -12 281 -58 4
-1321 3 -1335 -1z"/>
<path d="M3261 2155 c-21 -5 -46 -17 -57 -25 -42 -33 -44 -50 -44 -305 0 -360
-17 -342 339 -343 360 0 343 -18 339 353 l-3 254 -29 30 c-16 16 -43 33 -60
37 -49 11 -444 10 -485 -1z"/>
</g>
</svg>
